<svg xmlns="http://www.w3.org/2000/svg" preserveAspectRatio="xMidYMid" width="191" height="53" viewBox="0 0 191 53"><defs><style>.cls-1{fill:#fff;fill-rule:evenodd}</style></defs><path d="M190.998 19.293v3.409h-16.893V.189h16.497v3.41h-12.604v6.078h11.285v3.409h-11.285v6.207h13zm-25.171 3.409l-7.589-9.938-3.926 4.214v5.724h-3.893V.189h3.893v11.642L165.332.189h4.587l-8.943 9.616 9.536 12.897h-4.685zm-24.842-5.081h-11.646l-2.212 5.081h-4.057L133.264.189h3.993l10.096 22.513h-4.158l-2.21-5.081zm-5.84-13.379l-4.355 10.002h8.71l-4.355-10.002zM108.257.189h3.893v19.072h9.998v3.441h-13.891V.189zm-16.296 22.77c-7.16 0-12.505-4.953-12.505-11.546 0-6.56 5.345-11.416 12.505-11.416 7.159 0 12.505 4.888 12.505 11.416 0 6.593-5.346 11.546-12.505 11.546zm.066-17.945c-3.464 0-6.367 2.765-6.367 6.432 0 3.666 2.936 6.496 6.367 6.496 3.465 0 6.236-2.83 6.236-6.496 0-3.667-2.771-6.432-6.236-6.432zM71.08 8.423l-5.379 12.028h-3.959L56.364 8.423v14.279h-5.377V.157h6.598l6.137 13.154L69.859.157h6.598v22.545h-5.344L71.08 8.423zM54.739 40.411l.023 8.017H52.1v-1.493c-.896 1.08-2.334 1.608-4.148 1.608-2.71 0-4.407-1.631-4.407-3.79 0-2.228 1.72-3.653 4.737-3.676h3.794v-.367c0-1.539-1.014-2.459-2.994-2.459-1.201 0-2.45.414-3.7 1.241l-1.106-1.838c1.744-1.01 3.016-1.539 5.396-1.539 3.229 0 5.044 1.608 5.067 4.296zm-6.056 2.596c-1.769 0-2.593.459-2.593 1.631 0 1.103.919 1.814 2.428 1.814 1.932 0 3.417-.987 3.558-2.319v-1.126h-3.393zM35.482 22.959c-7.16 0-12.505-4.953-12.505-11.546 0-6.56 5.345-11.416 12.505-11.416 7.16 0 12.505 4.888 12.505 11.416 0 6.593-5.345 11.546-12.505 11.546zm.066-17.945c-3.463 0-6.367 2.765-6.367 6.432 0 3.666 2.936 6.496 6.367 6.496 3.465 0 6.236-2.83 6.236-6.496 0-3.667-2.771-6.432-6.236-6.432zM13.016 17.717c1.914 0 4.125-1.029 5.741-2.637l3.531 3.698c-2.475 2.541-6.171 4.181-9.602 4.181-6.962 0-12.141-4.953-12.141-11.578 0-6.496 5.31-11.384 12.372-11.384 3.431 0 7.027 1.479 9.337 3.859L18.757 7.94c-1.518-1.801-3.728-2.958-5.741-2.958-3.564 0-6.269 2.733-6.269 6.335 0 3.635 2.705 6.4 6.269 6.4zm.202 17.066H7.986v13.645H5.205V34.783H-.003v-2.435h13.221v2.435zm5.938 1.332c3.865 0 6.528 2.504 6.528 6.203 0 3.675-2.663 6.202-6.528 6.202-3.888 0-6.551-2.527-6.551-6.202 0-3.699 2.663-6.203 6.551-6.203zm0 10.2c2.239 0 3.817-1.609 3.817-3.974 0-2.343-1.578-3.952-3.817-3.952-2.263 0-3.842 1.609-3.842 3.952 0 2.365 1.579 3.974 3.842 3.974zm14.139-10.223c2.027 0 3.535.804 4.454 2.228v-6.936h2.71v17.044h-2.71v-2.09c-.896 1.424-2.404 2.205-4.406 2.205-3.607 0-6.01-2.55-6.01-6.271 0-3.676 2.427-6.18 5.962-6.18zm.613 10.246c2.262 0 3.841-1.654 3.841-3.974 0-2.366-1.579-4.02-3.841-4.02-2.263 0-3.842 1.677-3.866 4.02.024 2.32 1.58 3.974 3.866 3.974zm24.788-10.131l3.748 9.258 3.489-9.258h2.71l-5.704 13.898c-.777 1.93-2.192 2.894-4.077 2.894-1.131 0-2.027-.321-2.898-1.033l1.154-2.045c.589.414 1.061.598 1.626.598.825 0 1.484-.437 1.91-1.356l.423-.919-5.184-12.037h2.803z" class="cls-1"/></svg>