<svg xmlns="http://www.w3.org/2000/svg" preserveAspectRatio="xMidYMid" width="141" height="40" viewBox="0 0 141 40"><defs><style>.cls-1{fill:#000;fill-rule:evenodd}</style></defs><path d="M140.999 14.561v2.573h-12.47V.143h12.178v2.573h-9.304v4.588h8.33v2.573h-8.33v4.684h9.596zm-18.582 2.573l-5.602-7.5-2.898 3.179v4.321h-2.874V.143h2.874V8.93l8.135-8.787h3.386l-6.601 7.258 7.039 9.733h-3.459zm-18.338-3.835h-8.598l-1.632 3.835h-2.996L98.379.143h2.947l7.454 16.991h-3.069l-1.632-3.835zM99.768 3.202l-3.215 7.548h6.43l-3.215-7.548zM79.918.143h2.874v14.394h7.381v2.597H79.918V.143zm-12.03 17.185c-5.285 0-9.231-3.738-9.231-8.714 0-4.951 3.946-8.616 9.231-8.616 5.286 0 9.232 3.689 9.232 8.616 0 4.976-3.946 8.714-9.232 8.714zm.049-13.544c-2.557 0-4.701 2.088-4.701 4.855 0 2.767 2.168 4.903 4.701 4.903 2.558 0 4.604-2.136 4.604-4.903 0-2.767-2.046-4.855-4.604-4.855zM52.473 6.357l-3.97 9.078H45.58l-3.97-9.078v10.777h-3.97V.119h4.871l4.531 9.928 4.53-9.928h4.872v17.015h-3.946l-.025-10.777zM40.41 30.499l.017 6.051h-1.965v-1.127c-.662.815-1.723 1.214-3.062 1.214-2.001 0-3.254-1.231-3.254-2.861 0-1.682 1.27-2.757 3.497-2.774h2.801v-.277c0-1.162-.748-1.855-2.209-1.855-.887 0-1.809.312-2.732.936l-.817-1.387c1.287-.763 2.227-1.162 3.984-1.162 2.383 0 3.723 1.214 3.74 3.242zm-4.471 1.959c-1.305 0-1.914.347-1.914 1.231 0 .832.679 1.37 1.792 1.37 1.427 0 2.523-.746 2.627-1.751v-.85h-2.505zm-9.745-15.13c-5.285 0-9.231-3.738-9.231-8.714 0-4.951 3.946-8.616 9.231-8.616 5.286 0 9.232 3.689 9.232 8.616 0 4.976-3.946 8.714-9.232 8.714zm.049-13.544c-2.557 0-4.701 2.088-4.701 4.855 0 2.767 2.168 4.903 4.701 4.903 2.558 0 4.604-2.136 4.604-4.903 0-2.767-2.046-4.855-4.604-4.855zM9.61 13.372c1.412 0 3.044-.777 4.237-1.991l2.607 2.792c-1.827 1.917-4.555 3.155-7.088 3.155-5.139 0-8.963-3.738-8.963-8.738 0-4.903 3.921-8.592 9.133-8.592 2.533 0 5.188 1.116 6.893 2.912l-2.582 3.083C12.727 4.634 11.095 3.76 9.61 3.76c-2.631 0-4.628 2.063-4.628 4.782 0 2.742 1.997 4.83 4.628 4.83zm.149 12.88H5.897V36.55H3.844V26.252H-.001v-1.838h9.76v1.838zm4.383 1.005c2.853 0 4.819 1.89 4.819 4.681 0 2.774-1.966 4.681-4.819 4.681-2.87 0-4.836-1.907-4.836-4.681 0-2.791 1.966-4.681 4.836-4.681zm0 7.698c1.653 0 2.818-1.214 2.818-2.999 0-1.769-1.165-2.982-2.818-2.982-1.67 0-2.836 1.213-2.836 2.982 0 1.785 1.166 2.999 2.836 2.999zM24.58 27.24c1.496 0 2.609.607 3.288 1.682v-5.236h2V36.55h-2v-1.578c-.661 1.075-1.775 1.665-3.253 1.665-2.662 0-4.437-1.925-4.437-4.733 0-2.774 1.792-4.664 4.402-4.664zm.452 7.732c1.67 0 2.836-1.248 2.836-2.999 0-1.786-1.166-3.034-2.836-3.034s-2.836 1.266-2.853 3.034c.017 1.751 1.165 2.999 2.853 2.999zm18.3-7.645l2.766 6.986 2.575-6.986h2.001l-4.21 10.488C45.89 39.272 44.846 40 43.454 40c-.835 0-1.496-.243-2.14-.78l.853-1.543c.435.312.783.45 1.2.45.609 0 1.096-.329 1.409-1.022l.313-.694-3.827-9.084h2.07z" class="cls-1" id="logo"/></svg>